<?xml version="1.0" encoding="UTF-8" standalone="no"?>
<!-- Generator: Adobe Illustrator 17.0.1, SVG Export Plug-In . SVG Version: 6.00 Build 0)  -->

<svg
   version="1.1"
   x="0px"
   y="0px"
   width="86px"
   height="86px"
   viewBox="0 0 86 86"
   enable-background="new 0 0 86 86"
   xml:space="preserve"
   id="svg647"
   sodipodi:docname="fdo_icon.svg"
   inkscape:version="1.2.1 (9c6d41e410, 2022-07-14)"
   xmlns:inkscape="http://www.inkscape.org/namespaces/inkscape"
   xmlns:sodipodi="http://sodipodi.sourceforge.net/DTD/sodipodi-0.dtd"
   xmlns="http://www.w3.org/2000/svg"
   xmlns:svg="http://www.w3.org/2000/svg"><defs
   id="defs651"><radialGradient
     id="SVGID_3_-1"
     cx="43.012501"
     cy="43"
     r="32.0186"
     gradientUnits="userSpaceOnUse"
     gradientTransform="matrix(-1,0,0,1,85.9875,0)">
		<stop
   offset="0.28080001"
   style="stop-color:#bababa;stop-opacity:1;"
   id="stop631-2" />
		<stop
   offset="0.70429999"
   style="stop-color:#9dc0d7;stop-opacity:1;"
   id="stop633-1" />
		<stop
   offset="0.91939998"
   style="stop-color:#3b80ae;stop-opacity:1;"
   id="stop635-0" />
		<stop
   offset="1"
   style="stop-color:#bababa;stop-opacity:1;"
   id="stop637-0" />
	</radialGradient><radialGradient
     id="SVGID_3_-1-6"
     cx="43.012501"
     cy="43"
     r="32.0186"
     gradientUnits="userSpaceOnUse"
     gradientTransform="translate(-0.012501)">
		<stop
   offset="0.28080001"
   style="stop-color:#bababa;stop-opacity:1;"
   id="stop631-2-1" />
		<stop
   offset="0.70429999"
   style="stop-color:#9dc0d7;stop-opacity:1;"
   id="stop633-1-7" />
		<stop
   offset="0.91939998"
   style="stop-color:#3b80ae;stop-opacity:1;"
   id="stop635-0-9" />
		<stop
   offset="1"
   style="stop-color:#bababa;stop-opacity:1;"
   id="stop637-0-5" />
	</radialGradient></defs><sodipodi:namedview
   id="namedview649"
   pagecolor="#ffffff"
   bordercolor="#666666"
   borderopacity="1.0"
   inkscape:showpageshadow="2"
   inkscape:pageopacity="0.0"
   inkscape:pagecheckerboard="0"
   inkscape:deskcolor="#d1d1d1"
   showgrid="false"
   inkscape:zoom="3.9343092"
   inkscape:cx="47.657667"
   inkscape:cy="32.407214"
   inkscape:window-width="1350"
   inkscape:window-height="1160"
   inkscape:window-x="2076"
   inkscape:window-y="6"
   inkscape:window-maximized="0"
   inkscape:current-layer="Layer_1" />
<g
   id="Layer_2"
   display="none">
	<rect
   x="-141"
   y="-19"
   display="inline"
   fill="#32332F"
   width="497"
   height="300"
   id="rect612" />
</g>
<g
   id="Layer_1">
	<radialGradient
   id="SVGID_1_"
   cx="43"
   cy="43"
   r="42.7"
   gradientUnits="userSpaceOnUse">
		<stop
   offset="0"
   style="stop-color:#7B7B7D"
   id="stop615" />
		<stop
   offset="1"
   style="stop-color:#DADADA"
   id="stop617" />
	</radialGradient>
	<circle
   fill="url(#SVGID_1_)"
   cx="43"
   cy="43"
   r="42.7"
   id="circle620" />
	<g
   id="g629">
		<radialGradient
   id="SVGID_2_"
   cx="42.9444"
   cy="43.1111"
   r="32.0586"
   gradientUnits="userSpaceOnUse">
			<stop
   offset="0.543"
   style="stop-color:#362936"
   id="stop622" />
			<stop
   offset="0.828"
   style="stop-color:#453545"
   id="stop624" />
		</radialGradient>
		
	</g>
	<radialGradient
   id="SVGID_3_"
   cx="43.0125"
   cy="43"
   r="32.0186"
   gradientUnits="userSpaceOnUse">
		<stop
   offset="0.2808"
   style="stop-color:#FF9859"
   id="stop631" />
		<stop
   offset="0.7043"
   style="stop-color:#F05200"
   id="stop633" />
		<stop
   offset="0.9194"
   style="stop-color:#FF5500"
   id="stop635" />
		<stop
   offset="1"
   style="stop-color:#FF8438"
   id="stop637" />
	</radialGradient>
	<path
   fill="url(#SVGID_3_)"
   d="M75.025,43c0-17.687-14.338-32.025-32.025-32.025v64.05C60.687,75.025,75.025,60.687,75.025,43z"
   id="path640" /><path
   fill="url(#SVGID_3_)"
   d="m 10.9625,43 c 0,-17.687 14.338,-32.025 32.025,-32.025 v 64.05 C 25.3005,75.025 10.9625,60.687 10.9625,43 Z"
   id="path640-3"
   style="fill:url(#SVGID_3_-1)" /><path
   fill="url(#SVGID_3_)"
   d="m 75.0125,43.000002 c 0,-17.687 -14.338,-32.025 -32.025,-32.025 v 64.049996 c 17.687,0 32.025,-14.338 32.025,-32.024996 z"
   id="path640-3-9"
   style="fill:url(#SVGID_3_-1-6)" />
	
	
<g
   transform="matrix(0.66666364,0,0,0.66666364,14.009351,18.698444)"
   id="g37"
   style="fill:#ffffff;fill-rule:nonzero;stroke:#3b80ae;stroke-width:2.4588;stroke-miterlimit:4"><g
     id="g39"><path
       d="M 85.277,40.796 C 87.335,48.68 82.61,56.738 74.726,58.795 L 27.143,71.21 C 19.259,73.267 11.2,68.543 9.143,60.658 L 1.695,32.108 C -0.362,24.224 4.362,16.166 12.246,14.109 L 59.83,1.695 c 7.884,-2.057 15.942,2.667 17.999,10.551 l 7.449,28.55 z"
       id="path41"
       style="stroke:#bababa" /><path
       d="m 80.444,39.778 c 1.749,7.854 -1.816,13.621 -9.504,15.447 L 28.704,66.245 C 21.135,68.641 14.615,65.064 12.866,57.409 L 6.53,33.127 C 4.781,24.982 7.239,20.238 16.033,17.68 L 58.27,6.661 c 8.144,-1.826 14.089,1.363 15.838,8.835 z"
       id="path43"
       style="fill:#3b80ae;stroke:none" /></g><path
     d="M 45.542,51.793 24.104,31.102 62.204,26.709 Z"
     id="path45"
     style="opacity:0.5;fill:none;stroke:#ffffff" /><path
     d="m 72.325,28.769 c 0.405,1.55 -0.525,3.136 -2.075,3.541 l -12.331,3.217 c -1.551,0.404 -3.137,-0.525 -3.542,-2.076 L 52.082,24.65 c -0.405,-1.551 0.524,-3.137 2.076,-3.542 l 12.33,-3.217 c 1.551,-0.405 3.137,0.525 3.542,2.076 l 2.295,8.801 z"
     id="path47" /><path
     d="m 36.51,33.625 c 0.496,1.9 -0.645,3.844 -2.545,4.34 l -15.112,3.943 c -1.901,0.496 -3.845,-0.644 -4.34,-2.544 L 11.699,28.578 c -0.496,-1.901 0.644,-3.844 2.544,-4.34 l 15.113,-3.942 c 1.901,-0.496 3.845,0.643 4.34,2.544 l 2.814,10.786 z"
     id="path49" /><path
     d="m 52.493,53.208 c 0.278,1.065 -0.36,2.154 -1.425,2.432 L 42.6,57.848 c -1.064,0.277 -2.153,-0.36 -2.431,-1.426 l -1.577,-6.043 c -0.277,-1.064 0.36,-2.153 1.425,-2.432 l 8.468,-2.209 c 1.064,-0.277 2.154,0.361 2.431,1.426 l 1.577,6.043 z"
     id="path51" /></g></g>
</svg>
